<?xml version="1.0" encoding="UTF-8" standalone="no"?>
<!DOCTYPE svg PUBLIC "-//W3C//DTD SVG 1.1//EN"
 "http://www.w3.org/Graphics/SVG/1.1/DTD/svg11.dtd">
<!-- Generated by graphviz version 2.47.0 (20210316.0004)
 -->
<!-- Title: dependencies Pages: 1 -->
<svg width="2196pt" height="211pt"
 viewBox="0.00 0.00 2196.00 211.00" xmlns="http://www.w3.org/2000/svg" xmlns:xlink="http://www.w3.org/1999/xlink">
<g id="graph0" class="graph" transform="scale(1 1) rotate(0) translate(4 207)">
<title>dependencies</title>
<polygon fill="white" stroke="transparent" points="-4,4 -4,-207 2192,-207 2192,4 -4,4"/>
<text text-anchor="start" x="1073.01" y="-42.4" font-family="Times-12" font-weight="bold" font-size="14.00">Legend</text>
<polygon fill="#ffffb3" stroke="transparent" points="860,-10 860,-30 880,-30 880,-10 860,-10"/>
<text text-anchor="start" x="883.63" y="-15.4" font-family="Times-12" font-size="14.00"> &#160;Declarations</text>
<polygon fill="#8dd3c7" stroke="transparent" points="973,-10 973,-30 993,-30 993,-10 973,-10"/>
<text text-anchor="start" x="996.73" y="-15.4" font-family="Times-12" font-size="14.00"> &#160;Module</text>
<polygon fill="#80b1d3" stroke="transparent" points="1059,-10 1059,-30 1079,-30 1079,-10 1059,-10"/>
<text text-anchor="start" x="1082.78" y="-15.4" font-family="Times-12" font-size="14.00"> &#160;Bootstrap</text>
<polygon fill="#fdb462" stroke="transparent" points="1156,-10 1156,-30 1176,-30 1176,-10 1156,-10"/>
<text text-anchor="start" x="1179.67" y="-15.4" font-family="Times-12" font-size="14.00"> &#160;Providers</text>
<polygon fill="#fb8072" stroke="transparent" points="1252,-10 1252,-30 1272,-30 1272,-10 1252,-10"/>
<text text-anchor="start" x="1275.73" y="-15.4" font-family="Times-12" font-size="14.00"> &#160;Exports</text>
<g id="clust1" class="cluster">
<title>cluster_AppModule</title>
<polygon fill="none" stroke="black" stroke-dasharray="1,5" points="8,-70 8,-195 2180,-195 2180,-70 8,-70"/>
</g>
<g id="clust3" class="cluster">
<title>cluster_AppModule_imports</title>
<polygon fill="none" stroke="black" points="154,-78 154,-130 2172,-130 2172,-78 154,-78"/>
</g>
<g id="clust6" class="cluster">
<title>cluster_AppModule_providers</title>
<polygon fill="none" stroke="black" points="16,-78 16,-130 146,-130 146,-78 16,-78"/>
</g>
<!-- AuthModule -->
<g id="node1" class="node">
<title>AuthModule</title>
<polygon fill="#8dd3c7" stroke="black" points="2163.55,-122 2160.55,-126 2139.55,-126 2136.55,-122 2076.45,-122 2076.45,-86 2163.55,-86 2163.55,-122"/>
<text text-anchor="middle" x="2120" y="-99.8" font-family="Times,serif" font-size="14.00">AuthModule</text>
</g>
<!-- AppModule -->
<g id="node17" class="node">
<title>AppModule</title>
<polygon fill="#8dd3c7" stroke="black" points="1121.66,-187 1118.66,-191 1097.66,-191 1094.66,-187 1038.34,-187 1038.34,-151 1121.66,-151 1121.66,-187"/>
<text text-anchor="middle" x="1080" y="-164.8" font-family="Times,serif" font-size="14.00">AppModule</text>
</g>
<!-- AuthModule&#45;&gt;AppModule -->
<g id="edge1" class="edge">
<title>AuthModule&#45;&gt;AppModule</title>
<path fill="none" stroke="black" d="M2120,-122.32C2120,-145.66 2120,-183 2120,-183 2120,-183 1131.73,-183 1131.73,-183"/>
<polygon fill="black" stroke="black" points="1131.73,-179.5 1121.73,-183 1131.73,-186.5 1131.73,-179.5"/>
</g>
<!-- AvailabilitiesModule -->
<g id="node2" class="node">
<title>AvailabilitiesModule</title>
<polygon fill="#8dd3c7" stroke="black" points="2058.48,-122 2055.48,-126 2034.48,-126 2031.48,-122 1923.52,-122 1923.52,-86 2058.48,-86 2058.48,-122"/>
<text text-anchor="middle" x="1991" y="-99.8" font-family="Times,serif" font-size="14.00">AvailabilitiesModule</text>
</g>
<!-- AvailabilitiesModule&#45;&gt;AppModule -->
<g id="edge2" class="edge">
<title>AvailabilitiesModule&#45;&gt;AppModule</title>
<path fill="none" stroke="black" d="M1991,-122.16C1991,-144.35 1991,-179 1991,-179 1991,-179 1131.81,-179 1131.81,-179"/>
<polygon fill="black" stroke="black" points="1131.81,-175.5 1121.81,-179 1131.81,-182.5 1131.81,-175.5"/>
</g>
<!-- BookingModule -->
<g id="node3" class="node">
<title>BookingModule</title>
<polygon fill="#8dd3c7" stroke="black" points="1905.78,-122 1902.78,-126 1881.78,-126 1878.78,-122 1798.22,-122 1798.22,-86 1905.78,-86 1905.78,-122"/>
<text text-anchor="middle" x="1852" y="-99.8" font-family="Times,serif" font-size="14.00">BookingModule</text>
</g>
<!-- BookingModule&#45;&gt;AppModule -->
<g id="edge3" class="edge">
<title>BookingModule&#45;&gt;AppModule</title>
<path fill="none" stroke="black" d="M1852,-122.28C1852,-143.32 1852,-175 1852,-175 1852,-175 1131.78,-175 1131.78,-175"/>
<polygon fill="black" stroke="black" points="1131.78,-171.5 1121.78,-175 1131.78,-178.5 1131.78,-171.5"/>
</g>
<!-- ChatModule -->
<g id="node4" class="node">
<title>ChatModule</title>
<polygon fill="#8dd3c7" stroke="black" points="1779.99,-122 1776.99,-126 1755.99,-126 1752.99,-122 1694.01,-122 1694.01,-86 1779.99,-86 1779.99,-122"/>
<text text-anchor="middle" x="1737" y="-99.8" font-family="Times,serif" font-size="14.00">ChatModule</text>
</g>
<!-- ChatModule&#45;&gt;AppModule -->
<g id="edge4" class="edge">
<title>ChatModule&#45;&gt;AppModule</title>
<path fill="none" stroke="black" d="M1737,-122.31C1737,-142.15 1737,-171 1737,-171 1737,-171 1131.85,-171 1131.85,-171"/>
<polygon fill="black" stroke="black" points="1131.85,-167.5 1121.85,-171 1131.85,-174.5 1131.85,-167.5"/>
</g>
<!-- LipaNaMpesaModule -->
<g id="node5" class="node">
<title>LipaNaMpesaModule</title>
<polygon fill="#8dd3c7" stroke="black" points="1676.35,-122 1673.35,-126 1652.35,-126 1649.35,-122 1537.65,-122 1537.65,-86 1676.35,-86 1676.35,-122"/>
<text text-anchor="middle" x="1607" y="-99.8" font-family="Times,serif" font-size="14.00">LipaNaMpesaModule</text>
</g>
<!-- LipaNaMpesaModule&#45;&gt;AppModule -->
<g id="edge5" class="edge">
<title>LipaNaMpesaModule&#45;&gt;AppModule</title>
<path fill="none" stroke="black" d="M1607,-122.22C1607,-140.83 1607,-167 1607,-167 1607,-167 1131.79,-167 1131.79,-167"/>
<polygon fill="black" stroke="black" points="1131.79,-163.5 1121.79,-167 1131.79,-170.5 1131.79,-163.5"/>
</g>
<!-- NotificationsModule -->
<g id="node6" class="node">
<title>NotificationsModule</title>
<polygon fill="#8dd3c7" stroke="black" points="1519.14,-122 1516.14,-126 1495.14,-126 1492.14,-122 1386.86,-122 1386.86,-86 1519.14,-86 1519.14,-122"/>
<text text-anchor="middle" x="1453" y="-99.8" font-family="Times,serif" font-size="14.00">NotificationsModule</text>
</g>
<!-- NotificationsModule&#45;&gt;AppModule -->
<g id="edge6" class="edge">
<title>NotificationsModule&#45;&gt;AppModule</title>
<path fill="none" stroke="black" d="M1453,-122.02C1453,-139.37 1453,-163 1453,-163 1453,-163 1131.7,-163 1131.7,-163"/>
<polygon fill="black" stroke="black" points="1131.7,-159.5 1121.7,-163 1131.7,-166.5 1131.7,-159.5"/>
</g>
<!-- PercelModule -->
<g id="node7" class="node">
<title>PercelModule</title>
<polygon fill="#8dd3c7" stroke="black" points="1368.03,-122 1365.03,-126 1344.03,-126 1341.03,-122 1273.97,-122 1273.97,-86 1368.03,-86 1368.03,-122"/>
<text text-anchor="middle" x="1321" y="-99.8" font-family="Times,serif" font-size="14.00">PercelModule</text>
</g>
<!-- PercelModule&#45;&gt;AppModule -->
<g id="edge7" class="edge">
<title>PercelModule&#45;&gt;AppModule</title>
<path fill="none" stroke="black" d="M1321,-122.01C1321,-138.05 1321,-159 1321,-159 1321,-159 1131.7,-159 1131.7,-159"/>
<polygon fill="black" stroke="black" points="1131.7,-155.5 1121.7,-159 1131.7,-162.5 1131.7,-155.5"/>
</g>
<!-- PresenceModule -->
<g id="node8" class="node">
<title>PresenceModule</title>
<polygon fill="#8dd3c7" stroke="black" points="1255.8,-122 1252.8,-126 1231.8,-126 1228.8,-122 1146.2,-122 1146.2,-86 1255.8,-86 1255.8,-122"/>
<text text-anchor="middle" x="1201" y="-99.8" font-family="Times,serif" font-size="14.00">PresenceModule</text>
</g>
<!-- PresenceModule&#45;&gt;AppModule -->
<g id="edge8" class="edge">
<title>PresenceModule&#45;&gt;AppModule</title>
<path fill="none" stroke="black" d="M1201,-122.12C1201,-136.78 1201,-155 1201,-155 1201,-155 1131.98,-155 1131.98,-155"/>
<polygon fill="black" stroke="black" points="1131.98,-151.5 1121.98,-155 1131.98,-158.5 1131.98,-151.5"/>
</g>
<!-- ProfileModule -->
<g id="node9" class="node">
<title>ProfileModule</title>
<polygon fill="#8dd3c7" stroke="black" points="1128.65,-122 1125.65,-126 1104.65,-126 1101.65,-122 1031.35,-122 1031.35,-86 1128.65,-86 1128.65,-122"/>
<text text-anchor="middle" x="1080" y="-99.8" font-family="Times,serif" font-size="14.00">ProfileModule</text>
</g>
<!-- ProfileModule&#45;&gt;AppModule -->
<g id="edge9" class="edge">
<title>ProfileModule&#45;&gt;AppModule</title>
<path fill="none" stroke="black" d="M1080,-122.11C1080,-122.11 1080,-140.99 1080,-140.99"/>
<polygon fill="black" stroke="black" points="1076.5,-140.99 1080,-150.99 1083.5,-140.99 1076.5,-140.99"/>
</g>
<!-- RoutesModule -->
<g id="node10" class="node">
<title>RoutesModule</title>
<polygon fill="#8dd3c7" stroke="black" points="1013.44,-122 1010.44,-126 989.44,-126 986.44,-122 914.56,-122 914.56,-86 1013.44,-86 1013.44,-122"/>
<text text-anchor="middle" x="964" y="-99.8" font-family="Times,serif" font-size="14.00">RoutesModule</text>
</g>
<!-- RoutesModule&#45;&gt;AppModule -->
<g id="edge10" class="edge">
<title>RoutesModule&#45;&gt;AppModule</title>
<path fill="none" stroke="black" d="M964,-122.12C964,-136.78 964,-155 964,-155 964,-155 1028.12,-155 1028.12,-155"/>
<polygon fill="black" stroke="black" points="1028.12,-158.5 1038.12,-155 1028.12,-151.5 1028.12,-158.5"/>
</g>
<!-- SaccosModule -->
<g id="node11" class="node">
<title>SaccosModule</title>
<polygon fill="#8dd3c7" stroke="black" points="897.42,-122 894.42,-126 873.42,-126 870.42,-122 798.58,-122 798.58,-86 897.42,-86 897.42,-122"/>
<text text-anchor="middle" x="848" y="-99.8" font-family="Times,serif" font-size="14.00">SaccosModule</text>
</g>
<!-- SaccosModule&#45;&gt;AppModule -->
<g id="edge11" class="edge">
<title>SaccosModule&#45;&gt;AppModule</title>
<path fill="none" stroke="black" d="M848,-122.01C848,-138.05 848,-159 848,-159 848,-159 1028.26,-159 1028.26,-159"/>
<polygon fill="black" stroke="black" points="1028.26,-162.5 1038.26,-159 1028.26,-155.5 1028.26,-162.5"/>
</g>
<!-- StationsModule -->
<g id="node12" class="node">
<title>StationsModule</title>
<polygon fill="#8dd3c7" stroke="black" points="780.16,-122 777.16,-126 756.16,-126 753.16,-122 675.84,-122 675.84,-86 780.16,-86 780.16,-122"/>
<text text-anchor="middle" x="728" y="-99.8" font-family="Times,serif" font-size="14.00">StationsModule</text>
</g>
<!-- StationsModule&#45;&gt;AppModule -->
<g id="edge12" class="edge">
<title>StationsModule&#45;&gt;AppModule</title>
<path fill="none" stroke="black" d="M728,-122.02C728,-139.37 728,-163 728,-163 728,-163 1028.24,-163 1028.24,-163"/>
<polygon fill="black" stroke="black" points="1028.24,-166.5 1038.24,-163 1028.24,-159.5 1028.24,-166.5"/>
</g>
<!-- TicketModule -->
<g id="node13" class="node">
<title>TicketModule</title>
<polygon fill="#8dd3c7" stroke="black" points="657.81,-122 654.81,-126 633.81,-126 630.81,-122 562.19,-122 562.19,-86 657.81,-86 657.81,-122"/>
<text text-anchor="middle" x="610" y="-99.8" font-family="Times,serif" font-size="14.00">TicketModule</text>
</g>
<!-- TicketModule&#45;&gt;AppModule -->
<g id="edge13" class="edge">
<title>TicketModule&#45;&gt;AppModule</title>
<path fill="none" stroke="black" d="M610,-122.22C610,-140.83 610,-167 610,-167 610,-167 1028.29,-167 1028.29,-167"/>
<polygon fill="black" stroke="black" points="1028.29,-170.5 1038.29,-167 1028.29,-163.5 1028.29,-170.5"/>
</g>
<!-- UsersModule -->
<g id="node14" class="node">
<title>UsersModule</title>
<polygon fill="#8dd3c7" stroke="black" points="544.92,-122 541.92,-126 520.92,-126 517.92,-122 453.08,-122 453.08,-86 544.92,-86 544.92,-122"/>
<text text-anchor="middle" x="499" y="-99.8" font-family="Times,serif" font-size="14.00">UsersModule</text>
</g>
<!-- UsersModule&#45;&gt;AppModule -->
<g id="edge14" class="edge">
<title>UsersModule&#45;&gt;AppModule</title>
<path fill="none" stroke="black" d="M499,-122.31C499,-142.15 499,-171 499,-171 499,-171 1028.22,-171 1028.22,-171"/>
<polygon fill="black" stroke="black" points="1028.22,-174.5 1038.22,-171 1028.22,-167.5 1028.22,-174.5"/>
</g>
<!-- VehicleOwnersModule -->
<g id="node15" class="node">
<title>VehicleOwnersModule</title>
<polygon fill="#8dd3c7" stroke="black" points="435.11,-122 432.11,-126 411.11,-126 408.11,-122 288.89,-122 288.89,-86 435.11,-86 435.11,-122"/>
<text text-anchor="middle" x="362" y="-99.8" font-family="Times,serif" font-size="14.00">VehicleOwnersModule</text>
</g>
<!-- VehicleOwnersModule&#45;&gt;AppModule -->
<g id="edge15" class="edge">
<title>VehicleOwnersModule&#45;&gt;AppModule</title>
<path fill="none" stroke="black" d="M362,-122.28C362,-143.32 362,-175 362,-175 362,-175 1028.29,-175 1028.29,-175"/>
<polygon fill="black" stroke="black" points="1028.29,-178.5 1038.29,-175 1028.29,-171.5 1028.29,-178.5"/>
</g>
<!-- VehiclesModule -->
<g id="node16" class="node">
<title>VehiclesModule</title>
<polygon fill="#8dd3c7" stroke="black" points="270.03,-122 267.03,-126 246.03,-126 243.03,-122 161.97,-122 161.97,-86 270.03,-86 270.03,-122"/>
<text text-anchor="middle" x="216" y="-99.8" font-family="Times,serif" font-size="14.00">VehiclesModule</text>
</g>
<!-- VehiclesModule&#45;&gt;AppModule -->
<g id="edge16" class="edge">
<title>VehiclesModule&#45;&gt;AppModule</title>
<path fill="none" stroke="black" d="M216,-122.16C216,-144.35 216,-179 216,-179 216,-179 1028.33,-179 1028.33,-179"/>
<polygon fill="black" stroke="black" points="1028.33,-182.5 1038.33,-179 1028.33,-175.5 1028.33,-182.5"/>
</g>
<!-- AppService -->
<g id="node18" class="node">
<title>AppService</title>
<ellipse fill="#fdb462" stroke="black" cx="81" cy="-104" rx="56.74" ry="18"/>
<text text-anchor="middle" x="81" y="-99.8" font-family="Times,serif" font-size="14.00">AppService</text>
</g>
<!-- AppService&#45;&gt;AppModule -->
<g id="edge17" class="edge">
<title>AppService&#45;&gt;AppModule</title>
<path fill="none" stroke="black" d="M81,-122.32C81,-145.66 81,-183 81,-183 81,-183 1028.03,-183 1028.03,-183"/>
<polygon fill="black" stroke="black" points="1028.03,-186.5 1038.03,-183 1028.03,-179.5 1028.03,-186.5"/>
</g>
</g>
</svg>
