<?xml version="1.0" encoding="UTF-8" standalone="no"?>
<!DOCTYPE svg PUBLIC "-//W3C//DTD SVG 1.1//EN"
 "http://www.w3.org/Graphics/SVG/1.1/DTD/svg11.dtd">
<!-- Generated by graphviz version 2.47.0 (20210316.0004)
 -->
<!-- Title: dependencies Pages: 1 -->
<svg width="3306pt" height="287pt"
 viewBox="0.00 0.00 3306.00 287.00" xmlns="http://www.w3.org/2000/svg" xmlns:xlink="http://www.w3.org/1999/xlink">
<g id="graph0" class="graph" transform="scale(1 1) rotate(0) translate(4 283)">
<title>dependencies</title>
<polygon fill="white" stroke="transparent" points="-4,4 -4,-283 3302,-283 3302,4 -4,4"/>
<text text-anchor="start" x="1628.01" y="-42.4" font-family="Times-12" font-weight="bold" font-size="14.00">Legend</text>
<polygon fill="#ffffb3" stroke="transparent" points="1415,-10 1415,-30 1435,-30 1435,-10 1415,-10"/>
<text text-anchor="start" x="1438.63" y="-15.4" font-family="Times-12" font-size="14.00"> &#160;Declarations</text>
<polygon fill="#8dd3c7" stroke="transparent" points="1528,-10 1528,-30 1548,-30 1548,-10 1528,-10"/>
<text text-anchor="start" x="1551.73" y="-15.4" font-family="Times-12" font-size="14.00"> &#160;Module</text>
<polygon fill="#80b1d3" stroke="transparent" points="1614,-10 1614,-30 1634,-30 1634,-10 1614,-10"/>
<text text-anchor="start" x="1637.78" y="-15.4" font-family="Times-12" font-size="14.00"> &#160;Bootstrap</text>
<polygon fill="#fdb462" stroke="transparent" points="1711,-10 1711,-30 1731,-30 1731,-10 1711,-10"/>
<text text-anchor="start" x="1734.67" y="-15.4" font-family="Times-12" font-size="14.00"> &#160;Providers</text>
<polygon fill="#fb8072" stroke="transparent" points="1807,-10 1807,-30 1827,-30 1827,-10 1807,-10"/>
<text text-anchor="start" x="1830.73" y="-15.4" font-family="Times-12" font-size="14.00"> &#160;Exports</text>
<g id="clust1" class="cluster">
<title>cluster_AppModule</title>
<polygon fill="none" stroke="black" stroke-dasharray="1,5" points="590,-146 590,-271 2762,-271 2762,-146 590,-146"/>
</g>
<g id="clust3" class="cluster">
<title>cluster_AppModule_imports</title>
<polygon fill="none" stroke="black" points="736,-154 736,-206 2754,-206 2754,-154 736,-154"/>
</g>
<g id="clust6" class="cluster">
<title>cluster_AppModule_providers</title>
<polygon fill="none" stroke="black" points="598,-154 598,-206 728,-206 728,-154 598,-154"/>
</g>
<g id="clust7" class="cluster">
<title>cluster_AuthModule</title>
<polygon fill="none" stroke="black" stroke-dasharray="1,5" points="8,-70 8,-138 454,-138 454,-70 8,-70"/>
</g>
<g id="clust12" class="cluster">
<title>cluster_AuthModule_providers</title>
<polygon fill="none" stroke="black" points="16,-78 16,-130 446,-130 446,-78 16,-78"/>
</g>
<g id="clust13" class="cluster">
<title>cluster_AvailabilitiesModule</title>
<polygon fill="none" stroke="black" stroke-dasharray="1,5" points="462,-70 462,-138 678,-138 678,-70 462,-70"/>
</g>
<g id="clust18" class="cluster">
<title>cluster_AvailabilitiesModule_providers</title>
<polygon fill="none" stroke="black" points="470,-78 470,-130 670,-130 670,-78 470,-78"/>
</g>
<g id="clust19" class="cluster">
<title>cluster_BookingModule</title>
<polygon fill="none" stroke="black" stroke-dasharray="1,5" points="686,-70 686,-138 864,-138 864,-70 686,-70"/>
</g>
<g id="clust24" class="cluster">
<title>cluster_BookingModule_providers</title>
<polygon fill="none" stroke="black" points="694,-78 694,-130 856,-130 856,-78 694,-78"/>
</g>
<g id="clust25" class="cluster">
<title>cluster_ChatModule</title>
<polygon fill="none" stroke="black" stroke-dasharray="1,5" points="872,-70 872,-138 1020,-138 1020,-70 872,-70"/>
</g>
<g id="clust30" class="cluster">
<title>cluster_ChatModule_providers</title>
<polygon fill="none" stroke="black" points="880,-78 880,-130 1012,-130 1012,-78 880,-78"/>
</g>
<g id="clust31" class="cluster">
<title>cluster_LipaNaMpesaModule</title>
<polygon fill="none" stroke="black" stroke-dasharray="1,5" points="1028,-70 1028,-138 1250,-138 1250,-70 1028,-70"/>
</g>
<g id="clust36" class="cluster">
<title>cluster_LipaNaMpesaModule_providers</title>
<polygon fill="none" stroke="black" points="1036,-78 1036,-130 1242,-130 1242,-78 1036,-78"/>
</g>
<g id="clust37" class="cluster">
<title>cluster_NotificationsModule</title>
<polygon fill="none" stroke="black" stroke-dasharray="1,5" points="1258,-70 1258,-138 1470,-138 1470,-70 1258,-70"/>
</g>
<g id="clust42" class="cluster">
<title>cluster_NotificationsModule_providers</title>
<polygon fill="none" stroke="black" points="1266,-78 1266,-130 1462,-130 1462,-78 1266,-78"/>
</g>
<g id="clust43" class="cluster">
<title>cluster_PercelModule</title>
<polygon fill="none" stroke="black" stroke-dasharray="1,5" points="1478,-70 1478,-138 1638,-138 1638,-70 1478,-70"/>
</g>
<g id="clust48" class="cluster">
<title>cluster_PercelModule_providers</title>
<polygon fill="none" stroke="black" points="1486,-78 1486,-130 1630,-130 1630,-78 1486,-78"/>
</g>
<g id="clust49" class="cluster">
<title>cluster_PresenceModule</title>
<polygon fill="none" stroke="black" stroke-dasharray="1,5" points="1646,-70 1646,-138 1826,-138 1826,-70 1646,-70"/>
</g>
<g id="clust54" class="cluster">
<title>cluster_PresenceModule_providers</title>
<polygon fill="none" stroke="black" points="1654,-78 1654,-130 1818,-130 1818,-78 1654,-78"/>
</g>
<g id="clust55" class="cluster">
<title>cluster_ProfileModule</title>
<polygon fill="none" stroke="black" stroke-dasharray="1,5" points="1834,-70 1834,-138 1998,-138 1998,-70 1834,-70"/>
</g>
<g id="clust60" class="cluster">
<title>cluster_ProfileModule_providers</title>
<polygon fill="none" stroke="black" points="1842,-78 1842,-130 1990,-130 1990,-78 1842,-78"/>
</g>
<g id="clust61" class="cluster">
<title>cluster_RoutesModule</title>
<polygon fill="none" stroke="black" stroke-dasharray="1,5" points="2006,-70 2006,-138 2172,-138 2172,-70 2006,-70"/>
</g>
<g id="clust66" class="cluster">
<title>cluster_RoutesModule_providers</title>
<polygon fill="none" stroke="black" points="2014,-78 2014,-130 2164,-130 2164,-78 2014,-78"/>
</g>
<g id="clust67" class="cluster">
<title>cluster_SaccosModule</title>
<polygon fill="none" stroke="black" stroke-dasharray="1,5" points="2180,-70 2180,-138 2346,-138 2346,-70 2180,-70"/>
</g>
<g id="clust72" class="cluster">
<title>cluster_SaccosModule_providers</title>
<polygon fill="none" stroke="black" points="2188,-78 2188,-130 2338,-130 2338,-78 2188,-78"/>
</g>
<g id="clust73" class="cluster">
<title>cluster_StationsModule</title>
<polygon fill="none" stroke="black" stroke-dasharray="1,5" points="2354,-70 2354,-138 2528,-138 2528,-70 2354,-70"/>
</g>
<g id="clust78" class="cluster">
<title>cluster_StationsModule_providers</title>
<polygon fill="none" stroke="black" points="2362,-78 2362,-130 2520,-130 2520,-78 2362,-78"/>
</g>
<g id="clust79" class="cluster">
<title>cluster_TicketModule</title>
<polygon fill="none" stroke="black" stroke-dasharray="1,5" points="2536,-70 2536,-138 2698,-138 2698,-70 2536,-70"/>
</g>
<g id="clust84" class="cluster">
<title>cluster_TicketModule_providers</title>
<polygon fill="none" stroke="black" points="2544,-78 2544,-130 2690,-130 2690,-78 2544,-78"/>
</g>
<g id="clust85" class="cluster">
<title>cluster_UsersModule</title>
<polygon fill="none" stroke="black" stroke-dasharray="1,5" points="2706,-70 2706,-138 2862,-138 2862,-70 2706,-70"/>
</g>
<g id="clust90" class="cluster">
<title>cluster_UsersModule_providers</title>
<polygon fill="none" stroke="black" points="2714,-78 2714,-130 2854,-130 2854,-78 2714,-78"/>
</g>
<g id="clust91" class="cluster">
<title>cluster_VehicleOwnersModule</title>
<polygon fill="none" stroke="black" stroke-dasharray="1,5" points="2870,-70 2870,-138 3102,-138 3102,-70 2870,-70"/>
</g>
<g id="clust96" class="cluster">
<title>cluster_VehicleOwnersModule_providers</title>
<polygon fill="none" stroke="black" points="2878,-78 2878,-130 3094,-130 3094,-78 2878,-78"/>
</g>
<g id="clust97" class="cluster">
<title>cluster_VehiclesModule</title>
<polygon fill="none" stroke="black" stroke-dasharray="1,5" points="3110,-70 3110,-138 3290,-138 3290,-70 3110,-70"/>
</g>
<g id="clust102" class="cluster">
<title>cluster_VehiclesModule_providers</title>
<polygon fill="none" stroke="black" points="3118,-78 3118,-130 3282,-130 3282,-78 3118,-78"/>
</g>
<!-- AuthModule -->
<g id="node1" class="node">
<title>AuthModule</title>
<polygon fill="#8dd3c7" stroke="black" points="831.55,-198 828.55,-202 807.55,-202 804.55,-198 744.45,-198 744.45,-162 831.55,-162 831.55,-198"/>
<text text-anchor="middle" x="788" y="-175.8" font-family="Times,serif" font-size="14.00">AuthModule</text>
</g>
<!-- AppModule -->
<g id="node17" class="node">
<title>AppModule</title>
<polygon fill="#8dd3c7" stroke="black" points="1748.66,-263 1745.66,-267 1724.66,-267 1721.66,-263 1665.34,-263 1665.34,-227 1748.66,-227 1748.66,-263"/>
<text text-anchor="middle" x="1707" y="-240.8" font-family="Times,serif" font-size="14.00">AppModule</text>
</g>
<!-- AuthModule&#45;&gt;AppModule -->
<g id="edge1" class="edge">
<title>AuthModule&#45;&gt;AppModule</title>
<path fill="none" stroke="black" d="M788,-198.16C788,-220.35 788,-255 788,-255 788,-255 1655.12,-255 1655.12,-255"/>
<polygon fill="black" stroke="black" points="1655.12,-258.5 1665.12,-255 1655.12,-251.5 1655.12,-258.5"/>
</g>
<!-- AvailabilitiesModule -->
<g id="node2" class="node">
<title>AvailabilitiesModule</title>
<polygon fill="#8dd3c7" stroke="black" points="984.48,-198 981.48,-202 960.48,-202 957.48,-198 849.52,-198 849.52,-162 984.48,-162 984.48,-198"/>
<text text-anchor="middle" x="917" y="-175.8" font-family="Times,serif" font-size="14.00">AvailabilitiesModule</text>
</g>
<!-- AvailabilitiesModule&#45;&gt;AppModule -->
<g id="edge2" class="edge">
<title>AvailabilitiesModule&#45;&gt;AppModule</title>
<path fill="none" stroke="black" d="M917,-198.28C917,-219.32 917,-251 917,-251 917,-251 1655.08,-251 1655.08,-251"/>
<polygon fill="black" stroke="black" points="1655.08,-254.5 1665.08,-251 1655.08,-247.5 1655.08,-254.5"/>
</g>
<!-- BookingModule -->
<g id="node3" class="node">
<title>BookingModule</title>
<polygon fill="#8dd3c7" stroke="black" points="1109.78,-198 1106.78,-202 1085.78,-202 1082.78,-198 1002.22,-198 1002.22,-162 1109.78,-162 1109.78,-198"/>
<text text-anchor="middle" x="1056" y="-175.8" font-family="Times,serif" font-size="14.00">BookingModule</text>
</g>
<!-- BookingModule&#45;&gt;AppModule -->
<g id="edge3" class="edge">
<title>BookingModule&#45;&gt;AppModule</title>
<path fill="none" stroke="black" d="M1056,-198.31C1056,-218.15 1056,-247 1056,-247 1056,-247 1655.29,-247 1655.29,-247"/>
<polygon fill="black" stroke="black" points="1655.29,-250.5 1665.29,-247 1655.29,-243.5 1655.29,-250.5"/>
</g>
<!-- ChatModule -->
<g id="node4" class="node">
<title>ChatModule</title>
<polygon fill="#8dd3c7" stroke="black" points="1213.99,-198 1210.99,-202 1189.99,-202 1186.99,-198 1128.01,-198 1128.01,-162 1213.99,-162 1213.99,-198"/>
<text text-anchor="middle" x="1171" y="-175.8" font-family="Times,serif" font-size="14.00">ChatModule</text>
</g>
<!-- ChatModule&#45;&gt;AppModule -->
<g id="edge4" class="edge">
<title>ChatModule&#45;&gt;AppModule</title>
<path fill="none" stroke="black" d="M1171,-198.22C1171,-216.83 1171,-243 1171,-243 1171,-243 1654.94,-243 1654.94,-243"/>
<polygon fill="black" stroke="black" points="1654.94,-246.5 1664.94,-243 1654.94,-239.5 1654.94,-246.5"/>
</g>
<!-- LipaNaMpesaModule -->
<g id="node5" class="node">
<title>LipaNaMpesaModule</title>
<polygon fill="#8dd3c7" stroke="black" points="1370.35,-198 1367.35,-202 1346.35,-202 1343.35,-198 1231.65,-198 1231.65,-162 1370.35,-162 1370.35,-198"/>
<text text-anchor="middle" x="1301" y="-175.8" font-family="Times,serif" font-size="14.00">LipaNaMpesaModule</text>
</g>
<!-- LipaNaMpesaModule&#45;&gt;AppModule -->
<g id="edge5" class="edge">
<title>LipaNaMpesaModule&#45;&gt;AppModule</title>
<path fill="none" stroke="black" d="M1301,-198.02C1301,-215.37 1301,-239 1301,-239 1301,-239 1655.08,-239 1655.08,-239"/>
<polygon fill="black" stroke="black" points="1655.08,-242.5 1665.08,-239 1655.08,-235.5 1655.08,-242.5"/>
</g>
<!-- NotificationsModule -->
<g id="node6" class="node">
<title>NotificationsModule</title>
<polygon fill="#8dd3c7" stroke="black" points="1521.14,-198 1518.14,-202 1497.14,-202 1494.14,-198 1388.86,-198 1388.86,-162 1521.14,-162 1521.14,-198"/>
<text text-anchor="middle" x="1455" y="-175.8" font-family="Times,serif" font-size="14.00">NotificationsModule</text>
</g>
<!-- NotificationsModule&#45;&gt;AppModule -->
<g id="edge6" class="edge">
<title>NotificationsModule&#45;&gt;AppModule</title>
<path fill="none" stroke="black" d="M1455,-198.01C1455,-214.05 1455,-235 1455,-235 1455,-235 1655.1,-235 1655.1,-235"/>
<polygon fill="black" stroke="black" points="1655.1,-238.5 1665.1,-235 1655.1,-231.5 1655.1,-238.5"/>
</g>
<!-- PercelModule -->
<g id="node7" class="node">
<title>PercelModule</title>
<polygon fill="#8dd3c7" stroke="black" points="1634.03,-198 1631.03,-202 1610.03,-202 1607.03,-198 1539.97,-198 1539.97,-162 1634.03,-162 1634.03,-198"/>
<text text-anchor="middle" x="1587" y="-175.8" font-family="Times,serif" font-size="14.00">PercelModule</text>
</g>
<!-- PercelModule&#45;&gt;AppModule -->
<g id="edge7" class="edge">
<title>PercelModule&#45;&gt;AppModule</title>
<path fill="none" stroke="black" d="M1587,-198.12C1587,-212.78 1587,-231 1587,-231 1587,-231 1655.03,-231 1655.03,-231"/>
<polygon fill="black" stroke="black" points="1655.03,-234.5 1665.03,-231 1655.03,-227.5 1655.03,-234.5"/>
</g>
<!-- PresenceModule -->
<g id="node8" class="node">
<title>PresenceModule</title>
<polygon fill="#8dd3c7" stroke="black" points="1761.8,-198 1758.8,-202 1737.8,-202 1734.8,-198 1652.2,-198 1652.2,-162 1761.8,-162 1761.8,-198"/>
<text text-anchor="middle" x="1707" y="-175.8" font-family="Times,serif" font-size="14.00">PresenceModule</text>
</g>
<!-- PresenceModule&#45;&gt;AppModule -->
<g id="edge8" class="edge">
<title>PresenceModule&#45;&gt;AppModule</title>
<path fill="none" stroke="black" d="M1707,-198.11C1707,-198.11 1707,-216.99 1707,-216.99"/>
<polygon fill="black" stroke="black" points="1703.5,-216.99 1707,-226.99 1710.5,-216.99 1703.5,-216.99"/>
</g>
<!-- ProfileModule -->
<g id="node9" class="node">
<title>ProfileModule</title>
<polygon fill="#8dd3c7" stroke="black" points="1876.65,-198 1873.65,-202 1852.65,-202 1849.65,-198 1779.35,-198 1779.35,-162 1876.65,-162 1876.65,-198"/>
<text text-anchor="middle" x="1828" y="-175.8" font-family="Times,serif" font-size="14.00">ProfileModule</text>
</g>
<!-- ProfileModule&#45;&gt;AppModule -->
<g id="edge9" class="edge">
<title>ProfileModule&#45;&gt;AppModule</title>
<path fill="none" stroke="black" d="M1828,-198.12C1828,-212.78 1828,-231 1828,-231 1828,-231 1758.98,-231 1758.98,-231"/>
<polygon fill="black" stroke="black" points="1758.98,-227.5 1748.98,-231 1758.98,-234.5 1758.98,-227.5"/>
</g>
<!-- RoutesModule -->
<g id="node10" class="node">
<title>RoutesModule</title>
<polygon fill="#8dd3c7" stroke="black" points="1993.44,-198 1990.44,-202 1969.44,-202 1966.44,-198 1894.56,-198 1894.56,-162 1993.44,-162 1993.44,-198"/>
<text text-anchor="middle" x="1944" y="-175.8" font-family="Times,serif" font-size="14.00">RoutesModule</text>
</g>
<!-- RoutesModule&#45;&gt;AppModule -->
<g id="edge10" class="edge">
<title>RoutesModule&#45;&gt;AppModule</title>
<path fill="none" stroke="black" d="M1944,-198.01C1944,-214.05 1944,-235 1944,-235 1944,-235 1758.83,-235 1758.83,-235"/>
<polygon fill="black" stroke="black" points="1758.83,-231.5 1748.83,-235 1758.83,-238.5 1758.83,-231.5"/>
</g>
<!-- SaccosModule -->
<g id="node11" class="node">
<title>SaccosModule</title>
<polygon fill="#8dd3c7" stroke="black" points="2109.42,-198 2106.42,-202 2085.42,-202 2082.42,-198 2010.58,-198 2010.58,-162 2109.42,-162 2109.42,-198"/>
<text text-anchor="middle" x="2060" y="-175.8" font-family="Times,serif" font-size="14.00">SaccosModule</text>
</g>
<!-- SaccosModule&#45;&gt;AppModule -->
<g id="edge11" class="edge">
<title>SaccosModule&#45;&gt;AppModule</title>
<path fill="none" stroke="black" d="M2060,-198.02C2060,-215.37 2060,-239 2060,-239 2060,-239 1758.88,-239 1758.88,-239"/>
<polygon fill="black" stroke="black" points="1758.88,-235.5 1748.88,-239 1758.88,-242.5 1758.88,-235.5"/>
</g>
<!-- StationsModule -->
<g id="node12" class="node">
<title>StationsModule</title>
<polygon fill="#8dd3c7" stroke="black" points="2232.16,-198 2229.16,-202 2208.16,-202 2205.16,-198 2127.84,-198 2127.84,-162 2232.16,-162 2232.16,-198"/>
<text text-anchor="middle" x="2180" y="-175.8" font-family="Times,serif" font-size="14.00">StationsModule</text>
</g>
<!-- StationsModule&#45;&gt;AppModule -->
<g id="edge12" class="edge">
<title>StationsModule&#45;&gt;AppModule</title>
<path fill="none" stroke="black" d="M2180,-198.22C2180,-216.83 2180,-243 2180,-243 2180,-243 1758.98,-243 1758.98,-243"/>
<polygon fill="black" stroke="black" points="1758.98,-239.5 1748.98,-243 1758.98,-246.5 1758.98,-239.5"/>
</g>
<!-- TicketModule -->
<g id="node13" class="node">
<title>TicketModule</title>
<polygon fill="#8dd3c7" stroke="black" points="2345.81,-198 2342.81,-202 2321.81,-202 2318.81,-198 2250.19,-198 2250.19,-162 2345.81,-162 2345.81,-198"/>
<text text-anchor="middle" x="2298" y="-175.8" font-family="Times,serif" font-size="14.00">TicketModule</text>
</g>
<!-- TicketModule&#45;&gt;AppModule -->
<g id="edge13" class="edge">
<title>TicketModule&#45;&gt;AppModule</title>
<path fill="none" stroke="black" d="M2298,-198.31C2298,-218.15 2298,-247 2298,-247 2298,-247 1759.03,-247 1759.03,-247"/>
<polygon fill="black" stroke="black" points="1759.03,-243.5 1749.03,-247 1759.03,-250.5 1759.03,-243.5"/>
</g>
<!-- UsersModule -->
<g id="node14" class="node">
<title>UsersModule</title>
<polygon fill="#8dd3c7" stroke="black" points="2454.92,-198 2451.92,-202 2430.92,-202 2427.92,-198 2363.08,-198 2363.08,-162 2454.92,-162 2454.92,-198"/>
<text text-anchor="middle" x="2409" y="-175.8" font-family="Times,serif" font-size="14.00">UsersModule</text>
</g>
<!-- UsersModule&#45;&gt;AppModule -->
<g id="edge14" class="edge">
<title>UsersModule&#45;&gt;AppModule</title>
<path fill="none" stroke="black" d="M2409,-198.28C2409,-219.32 2409,-251 2409,-251 2409,-251 1758.81,-251 1758.81,-251"/>
<polygon fill="black" stroke="black" points="1758.81,-247.5 1748.81,-251 1758.81,-254.5 1758.81,-247.5"/>
</g>
<!-- VehicleOwnersModule -->
<g id="node15" class="node">
<title>VehicleOwnersModule</title>
<polygon fill="#8dd3c7" stroke="black" points="2619.11,-198 2616.11,-202 2595.11,-202 2592.11,-198 2472.89,-198 2472.89,-162 2619.11,-162 2619.11,-198"/>
<text text-anchor="middle" x="2546" y="-175.8" font-family="Times,serif" font-size="14.00">VehicleOwnersModule</text>
</g>
<!-- VehicleOwnersModule&#45;&gt;AppModule -->
<g id="edge15" class="edge">
<title>VehicleOwnersModule&#45;&gt;AppModule</title>
<path fill="none" stroke="black" d="M2546,-198.16C2546,-220.35 2546,-255 2546,-255 2546,-255 1758.89,-255 1758.89,-255"/>
<polygon fill="black" stroke="black" points="1758.89,-251.5 1748.89,-255 1758.89,-258.5 1758.89,-251.5"/>
</g>
<!-- VehiclesModule -->
<g id="node16" class="node">
<title>VehiclesModule</title>
<polygon fill="#8dd3c7" stroke="black" points="2746.03,-198 2743.03,-202 2722.03,-202 2719.03,-198 2637.97,-198 2637.97,-162 2746.03,-162 2746.03,-198"/>
<text text-anchor="middle" x="2692" y="-175.8" font-family="Times,serif" font-size="14.00">VehiclesModule</text>
</g>
<!-- VehiclesModule&#45;&gt;AppModule -->
<g id="edge16" class="edge">
<title>VehiclesModule&#45;&gt;AppModule</title>
<path fill="none" stroke="black" d="M2692,-198.32C2692,-221.66 2692,-259 2692,-259 2692,-259 1758.7,-259 1758.7,-259"/>
<polygon fill="black" stroke="black" points="1758.7,-255.5 1748.7,-259 1758.7,-262.5 1758.7,-255.5"/>
</g>
<!-- AppService -->
<g id="node18" class="node">
<title>AppService</title>
<ellipse fill="#fdb462" stroke="black" cx="663" cy="-180" rx="56.74" ry="18"/>
<text text-anchor="middle" x="663" y="-175.8" font-family="Times,serif" font-size="14.00">AppService</text>
</g>
<!-- AppService&#45;&gt;AppModule -->
<g id="edge17" class="edge">
<title>AppService&#45;&gt;AppModule</title>
<path fill="none" stroke="black" d="M663,-198.32C663,-221.66 663,-259 663,-259 663,-259 1655.11,-259 1655.11,-259"/>
<polygon fill="black" stroke="black" points="1655.11,-262.5 1665.11,-259 1655.11,-255.5 1655.11,-262.5"/>
</g>
<!-- AuthService -->
<g id="node19" class="node">
<title>AuthService</title>
<ellipse fill="#fdb462" stroke="black" cx="379" cy="-104" rx="59.11" ry="18"/>
<text text-anchor="middle" x="379" y="-99.8" font-family="Times,serif" font-size="14.00">AuthService</text>
</g>
<!-- AuthService&#45;&gt;AuthModule -->
<g id="edge18" class="edge">
<title>AuthService&#45;&gt;AuthModule</title>
<path fill="none" stroke="black" d="M379,-122.24C379,-129.43 379,-136 379,-136 379,-136 809.89,-136 809.89,-136 809.89,-136 809.89,-151.85 809.89,-151.85"/>
<polygon fill="black" stroke="black" points="806.39,-151.85 809.89,-161.85 813.39,-151.85 806.39,-151.85"/>
</g>
<!-- JwtStrategy -->
<g id="node20" class="node">
<title>JwtStrategy</title>
<ellipse fill="#fdb462" stroke="black" cx="245" cy="-104" rx="56.76" ry="18"/>
<text text-anchor="middle" x="245" y="-99.8" font-family="Times,serif" font-size="14.00">JwtStrategy</text>
</g>
<!-- JwtStrategy&#45;&gt;AuthModule -->
<g id="edge19" class="edge">
<title>JwtStrategy&#45;&gt;AuthModule</title>
<path fill="none" stroke="black" d="M245,-122.32C245,-130.79 245,-139 245,-139 245,-139 788,-139 788,-139 788,-139 788,-151.9 788,-151.9"/>
<polygon fill="black" stroke="black" points="784.5,-151.9 788,-161.9 791.5,-151.9 784.5,-151.9"/>
</g>
<!-- RefreshStrategy -->
<g id="node21" class="node">
<title>RefreshStrategy</title>
<ellipse fill="#fdb462" stroke="black" cx="97" cy="-104" rx="73.49" ry="18"/>
<text text-anchor="middle" x="97" y="-99.8" font-family="Times,serif" font-size="14.00">RefreshStrategy</text>
</g>
<!-- RefreshStrategy&#45;&gt;AuthModule -->
<g id="edge20" class="edge">
<title>RefreshStrategy&#45;&gt;AuthModule</title>
<path fill="none" stroke="black" d="M97,-122.11C97,-131.9 97,-142 97,-142 97,-142 766.11,-142 766.11,-142 766.11,-142 766.11,-151.89 766.11,-151.89"/>
<polygon fill="black" stroke="black" points="762.61,-151.89 766.11,-161.89 769.61,-151.89 762.61,-151.89"/>
</g>
<!-- AvailabilitiesService -->
<g id="node22" class="node">
<title>AvailabilitiesService</title>
<ellipse fill="#fdb462" stroke="black" cx="570" cy="-104" rx="92.04" ry="18"/>
<text text-anchor="middle" x="570" y="-99.8" font-family="Times,serif" font-size="14.00">AvailabilitiesService</text>
</g>
<!-- AvailabilitiesService&#45;&gt;AvailabilitiesModule -->
<g id="edge21" class="edge">
<title>AvailabilitiesService&#45;&gt;AvailabilitiesModule</title>
<path fill="none" stroke="black" d="M634.2,-117.02C634.2,-124.33 634.2,-132 634.2,-132 634.2,-132 868.64,-132 868.64,-132 868.64,-132 868.64,-151.85 868.64,-151.85"/>
<polygon fill="black" stroke="black" points="865.14,-151.85 868.64,-161.85 872.14,-151.85 865.14,-151.85"/>
</g>
<!-- BookingService -->
<g id="node23" class="node">
<title>BookingService</title>
<ellipse fill="#fdb462" stroke="black" cx="775" cy="-104" rx="73.02" ry="18"/>
<text text-anchor="middle" x="775" y="-99.8" font-family="Times,serif" font-size="14.00">BookingService</text>
</g>
<!-- BookingService&#45;&gt;BookingModule -->
<g id="edge22" class="edge">
<title>BookingService&#45;&gt;BookingModule</title>
<path fill="none" stroke="black" d="M840.02,-112.46C840.02,-119.72 840.02,-129 840.02,-129 840.02,-129 1024.27,-129 1024.27,-129 1024.27,-129 1024.27,-151.88 1024.27,-151.88"/>
<polygon fill="black" stroke="black" points="1020.77,-151.88 1024.27,-161.88 1027.77,-151.88 1020.77,-151.88"/>
</g>
<!-- ChatService -->
<g id="node24" class="node">
<title>ChatService</title>
<ellipse fill="#fdb462" stroke="black" cx="946" cy="-104" rx="58.46" ry="18"/>
<text text-anchor="middle" x="946" y="-99.8" font-family="Times,serif" font-size="14.00">ChatService</text>
</g>
<!-- ChatService&#45;&gt;ChatModule -->
<g id="edge23" class="edge">
<title>ChatService&#45;&gt;ChatModule</title>
<path fill="none" stroke="black" d="M993.3,-114.74C993.3,-120.33 993.3,-126 993.3,-126 993.3,-126 1171,-126 1171,-126 1171,-126 1171,-151.72 1171,-151.72"/>
<polygon fill="black" stroke="black" points="1167.5,-151.72 1171,-161.72 1174.5,-151.72 1167.5,-151.72"/>
</g>
<!-- LipaNaMpesaService -->
<g id="node25" class="node">
<title>LipaNaMpesaService</title>
<ellipse fill="#fdb462" stroke="black" cx="1139" cy="-104" rx="94.88" ry="18"/>
<text text-anchor="middle" x="1139" y="-99.8" font-family="Times,serif" font-size="14.00">LipaNaMpesaService</text>
</g>
<!-- LipaNaMpesaService&#45;&gt;LipaNaMpesaModule -->
<g id="edge24" class="edge">
<title>LipaNaMpesaService&#45;&gt;LipaNaMpesaModule</title>
<path fill="none" stroke="black" d="M1222.79,-112.42C1222.79,-132.21 1222.79,-180 1222.79,-180 1222.79,-180 1223.65,-180 1223.65,-180"/>
<polygon fill="black" stroke="black" points="1221.46,-183.5 1231.46,-180 1221.46,-176.5 1221.46,-183.5"/>
</g>
<!-- NotificationsService -->
<g id="node26" class="node">
<title>NotificationsService</title>
<ellipse fill="#fdb462" stroke="black" cx="1364" cy="-104" rx="90.32" ry="18"/>
<text text-anchor="middle" x="1364" y="-99.8" font-family="Times,serif" font-size="14.00">NotificationsService</text>
</g>
<!-- NotificationsService&#45;&gt;NotificationsModule -->
<g id="edge25" class="edge">
<title>NotificationsService&#45;&gt;NotificationsModule</title>
<path fill="none" stroke="black" d="M1421.54,-117.94C1421.54,-117.94 1421.54,-151.84 1421.54,-151.84"/>
<polygon fill="black" stroke="black" points="1418.04,-151.84 1421.54,-161.84 1425.04,-151.84 1418.04,-151.84"/>
</g>
<!-- PercelService -->
<g id="node27" class="node">
<title>PercelService</title>
<ellipse fill="#fdb462" stroke="black" cx="1558" cy="-104" rx="64.24" ry="18"/>
<text text-anchor="middle" x="1558" y="-99.8" font-family="Times,serif" font-size="14.00">PercelService</text>
</g>
<!-- PercelService&#45;&gt;PercelModule -->
<g id="edge26" class="edge">
<title>PercelService&#45;&gt;PercelModule</title>
<path fill="none" stroke="black" d="M1580.93,-120.87C1580.93,-120.87 1580.93,-151.85 1580.93,-151.85"/>
<polygon fill="black" stroke="black" points="1577.43,-151.85 1580.93,-161.85 1584.43,-151.85 1577.43,-151.85"/>
</g>
<!-- PresenceService -->
<g id="node28" class="node">
<title>PresenceService</title>
<ellipse fill="#fdb462" stroke="black" cx="1736" cy="-104" rx="74.11" ry="18"/>
<text text-anchor="middle" x="1736" y="-99.8" font-family="Times,serif" font-size="14.00">PresenceService</text>
</g>
<!-- PresenceService&#45;&gt;PresenceModule -->
<g id="edge27" class="edge">
<title>PresenceService&#45;&gt;PresenceModule</title>
<path fill="none" stroke="black" d="M1711.67,-121.25C1711.67,-121.25 1711.67,-151.76 1711.67,-151.76"/>
<polygon fill="black" stroke="black" points="1708.17,-151.76 1711.67,-161.76 1715.17,-151.76 1708.17,-151.76"/>
</g>
<!-- ProfileService -->
<g id="node29" class="node">
<title>ProfileService</title>
<ellipse fill="#fdb462" stroke="black" cx="1916" cy="-104" rx="66.05" ry="18"/>
<text text-anchor="middle" x="1916" y="-99.8" font-family="Times,serif" font-size="14.00">ProfileService</text>
</g>
<!-- ProfileService&#45;&gt;ProfileModule -->
<g id="edge28" class="edge">
<title>ProfileService&#45;&gt;ProfileModule</title>
<path fill="none" stroke="black" d="M1863.28,-115.21C1863.28,-115.21 1863.28,-151.96 1863.28,-151.96"/>
<polygon fill="black" stroke="black" points="1859.78,-151.96 1863.28,-161.96 1866.78,-151.96 1859.78,-151.96"/>
</g>
<!-- RoutesService -->
<g id="node30" class="node">
<title>RoutesService</title>
<ellipse fill="#fdb462" stroke="black" cx="2089" cy="-104" rx="66.63" ry="18"/>
<text text-anchor="middle" x="2089" y="-99.8" font-family="Times,serif" font-size="14.00">RoutesService</text>
</g>
<!-- RoutesService&#45;&gt;RoutesModule -->
<g id="edge29" class="edge">
<title>RoutesService&#45;&gt;RoutesModule</title>
<path fill="none" stroke="black" d="M2022.03,-104C2003.2,-104 1987.75,-104 1987.75,-104 1987.75,-104 1987.75,-151.99 1987.75,-151.99"/>
<polygon fill="black" stroke="black" points="1984.25,-151.99 1987.75,-161.99 1991.25,-151.99 1984.25,-151.99"/>
</g>
<!-- SaccosService -->
<g id="node31" class="node">
<title>SaccosService</title>
<ellipse fill="#fdb462" stroke="black" cx="2263" cy="-104" rx="66.61" ry="18"/>
<text text-anchor="middle" x="2263" y="-99.8" font-family="Times,serif" font-size="14.00">SaccosService</text>
</g>
<!-- SaccosService&#45;&gt;SaccosModule -->
<g id="edge30" class="edge">
<title>SaccosService&#45;&gt;SaccosModule</title>
<path fill="none" stroke="black" d="M2208.24,-114.6C2208.24,-127.04 2208.24,-146 2208.24,-146 2208.24,-146 2065.7,-146 2065.7,-146 2065.7,-146 2065.7,-151.81 2065.7,-151.81"/>
<polygon fill="black" stroke="black" points="2062.2,-151.81 2065.7,-161.81 2069.2,-151.81 2062.2,-151.81"/>
</g>
<!-- StationsService -->
<g id="node32" class="node">
<title>StationsService</title>
<ellipse fill="#fdb462" stroke="black" cx="2441" cy="-104" rx="71.22" ry="18"/>
<text text-anchor="middle" x="2441" y="-99.8" font-family="Times,serif" font-size="14.00">StationsService</text>
</g>
<!-- StationsService&#45;&gt;StationsModule -->
<g id="edge31" class="edge">
<title>StationsService&#45;&gt;StationsModule</title>
<path fill="none" stroke="black" d="M2398.16,-118.49C2398.16,-131.64 2398.16,-149 2398.16,-149 2398.16,-149 2220.29,-149 2220.29,-149 2220.29,-149 2220.29,-151.97 2220.29,-151.97"/>
<polygon fill="black" stroke="black" points="2216.79,-151.97 2220.29,-161.97 2223.79,-151.97 2216.79,-151.97"/>
</g>
<!-- TicketService -->
<g id="node33" class="node">
<title>TicketService</title>
<ellipse fill="#fdb462" stroke="black" cx="2617" cy="-104" rx="64.82" ry="18"/>
<text text-anchor="middle" x="2617" y="-99.8" font-family="Times,serif" font-size="14.00">TicketService</text>
</g>
<!-- TicketService&#45;&gt;TicketModule -->
<g id="edge32" class="edge">
<title>TicketService&#45;&gt;TicketModule</title>
<path fill="none" stroke="black" d="M2574.66,-117.63C2574.66,-131.82 2574.66,-152 2574.66,-152 2574.66,-152 2337.73,-152 2337.73,-152 2337.73,-152 2337.73,-152.98 2337.73,-152.98"/>
<polygon fill="black" stroke="black" points="2334.23,-151.79 2337.73,-161.79 2341.23,-151.79 2334.23,-151.79"/>
</g>
<!-- UsersService -->
<g id="node34" class="node">
<title>UsersService</title>
<ellipse fill="#fdb462" stroke="black" cx="2784" cy="-104" rx="61.95" ry="18"/>
<text text-anchor="middle" x="2784" y="-99.8" font-family="Times,serif" font-size="14.00">UsersService</text>
</g>
<!-- UsersService&#45;&gt;UsersModule -->
<g id="edge33" class="edge">
<title>UsersService&#45;&gt;UsersModule</title>
<path fill="none" stroke="black" d="M2734.14,-114.77C2734.14,-130.01 2734.14,-156 2734.14,-156 2734.14,-156 2426.44,-156 2426.44,-156 2426.44,-156 2426.44,-156.58 2426.44,-156.58"/>
<polygon fill="black" stroke="black" points="2422.94,-151.81 2426.44,-161.81 2429.94,-151.81 2422.94,-151.81"/>
</g>
<!-- VehicleOwnersService -->
<g id="node35" class="node">
<title>VehicleOwnersService</title>
<ellipse fill="#fdb462" stroke="black" cx="2986" cy="-104" rx="100.09" ry="18"/>
<text text-anchor="middle" x="2986" y="-99.8" font-family="Times,serif" font-size="14.00">VehicleOwnersService</text>
</g>
<!-- VehicleOwnersService&#45;&gt;VehicleOwnersModule -->
<g id="edge34" class="edge">
<title>VehicleOwnersService&#45;&gt;VehicleOwnersModule</title>
<path fill="none" stroke="black" d="M2986,-122.01C2986,-138.05 2986,-159 2986,-159 2986,-159 2596.98,-159 2596.98,-159 2596.98,-159 2596.98,-159.29 2596.98,-159.29"/>
<polygon fill="black" stroke="black" points="2593.48,-151.92 2596.98,-161.92 2600.48,-151.92 2593.48,-151.92"/>
</g>
<!-- VehiclesService -->
<g id="node36" class="node">
<title>VehiclesService</title>
<ellipse fill="#fdb462" stroke="black" cx="3200" cy="-104" rx="73.55" ry="18"/>
<text text-anchor="middle" x="3200" y="-99.8" font-family="Times,serif" font-size="14.00">VehiclesService</text>
</g>
<!-- VehiclesService&#45;&gt;VehiclesModule -->
<g id="edge35" class="edge">
<title>VehiclesService&#45;&gt;VehiclesModule</title>
<path fill="none" stroke="black" d="M3200,-122.01C3200,-144.49 3200,-180 3200,-180 3200,-180 2756.36,-180 2756.36,-180"/>
<polygon fill="black" stroke="black" points="2756.36,-176.5 2746.36,-180 2756.36,-183.5 2756.36,-176.5"/>
</g>
</g>
</svg>
